<svg viewBox="0 0 1200 860" xmlns="http://www.w3.org/2000/svg" font-family="Georgia, 'Times New Roman', serif" role="img" aria-label="data542 target architecture diagram, all projects and planned routes">
  <defs>
    <marker id="arr" viewBox="0 0 10 10" refX="9" refY="5" markerWidth="7" markerHeight="7" orient="auto-start-reverse">
      <path d="M 0 1 L 9 5 L 0 9 z" fill="#5a4aaa"/>
    </marker>
    <marker id="arrAmber" viewBox="0 0 10 10" refX="9" refY="5" markerWidth="7" markerHeight="7" orient="auto-start-reverse">
      <path d="M 0 1 L 9 5 L 0 9 z" fill="#FFB347"/>
    </marker>
    <marker id="arrGhost" viewBox="0 0 10 10" refX="9" refY="5" markerWidth="6" markerHeight="6" orient="auto-start-reverse">
      <path d="M 0 1 L 9 5 L 0 9 z" fill="#3a3270"/>
    </marker>
  </defs>

  <rect x="0" y="0" width="1200" height="860" rx="10" fill="#0e0c20"/>

  <!-- header -->
  <text x="40" y="52" fill="#9b92c0" font-size="13" letter-spacing="3" font-weight="bold">DATA542 · TARGET ARCHITECTURE</text>
  <text x="1160" y="52" fill="#5a4aaa" font-size="11" text-anchor="end">all projects · current &amp; planned routes</text>

  <!-- ============ LANE 1 · TEMPEST (LIVE) ============ -->
  <text x="40" y="125" fill="#9b92c0" font-size="10.5" letter-spacing="1.5" font-weight="bold">TEMPEST WEATHER</text>
  <text x="286" y="125" fill="#FFD166" font-size="10.5" letter-spacing="1.5" font-weight="bold">LIVE</text>

  <rect x="40" y="145" width="210" height="60" rx="10" fill="#141230" stroke="#2e2660"/>
  <text x="145" y="170" fill="#e8e0f0" font-size="12.5" font-weight="bold" text-anchor="middle">WeatherFlow Tempest API</text>
  <text x="145" y="191" fill="#9b92c0" font-size="10.5" text-anchor="middle">1-min observations · Bellingham</text>

  <rect x="330" y="139" width="220" height="72" rx="10" fill="#141230" stroke="#2e2660"/>
  <text x="440" y="163" fill="#e8e0f0" font-size="13" font-weight="bold" text-anchor="middle">AWS Lambda</text>
  <text x="440" y="183" fill="#9b92c0" font-size="10.5" text-anchor="middle">ingest · clean · 5-min MV</text>
  <text x="440" y="200" fill="#9b92c0" font-size="10" text-anchor="middle">nightly incremental</text>

  <line x1="250" y1="175" x2="326" y2="175" stroke="#5a4aaa" stroke-width="1.5" marker-end="url(#arr)"/>
  <line x1="550" y1="175" x2="616" y2="175" stroke="#5a4aaa" stroke-width="1.5" marker-end="url(#arr)"/>

  <!-- ============ LANE 2 · SWING TRADER (DEPLOYING) ============ -->
  <text x="40" y="255" fill="#9b92c0" font-size="10.5" letter-spacing="1.5" font-weight="bold">SWING TRADER</text>
  <text x="286" y="255" fill="#FFD166" font-size="10.5" letter-spacing="1.5" font-weight="bold">LIVE</text>

  <rect x="40" y="275" width="210" height="60" rx="10" fill="#141230" stroke="#2e2660"/>
  <text x="145" y="300" fill="#e8e0f0" font-size="12.5" font-weight="bold" text-anchor="middle">NASDAQ / Market Data</text>
  <text x="145" y="321" fill="#9b92c0" font-size="10.5" text-anchor="middle">symbol directory · daily OHLCV</text>

  <rect x="330" y="269" width="220" height="72" rx="10" fill="#141230" stroke="#2e2660"/>
  <text x="440" y="293" fill="#e8e0f0" font-size="13" font-weight="bold" text-anchor="middle">AWS Fargate (ECS)</text>
  <text x="440" y="313" fill="#9b92c0" font-size="10.5" text-anchor="middle">universe builder · daily scanner</text>
  <text x="440" y="330" fill="#9b92c0" font-size="10" text-anchor="middle">containerized, beyond Lambda limits</text>

  <line x1="250" y1="305" x2="326" y2="305" stroke="#5a4aaa" stroke-width="1.5" marker-end="url(#arr)"/>
  <line x1="550" y1="305" x2="616" y2="305" stroke="#5a4aaa" stroke-width="1.5" marker-end="url(#arr)"/>

  <!-- ============ LANE 3 · SUNSET (PLANNED) ============ -->
  <text x="40" y="385" fill="#9b92c0" font-size="10.5" letter-spacing="1.5" font-weight="bold">BEST WASHINGTON SUNSET</text>
  <text x="286" y="385" fill="#6f6699" font-size="10.5" letter-spacing="1.5" font-weight="bold">PLANNED</text>

  <rect x="40" y="405" width="210" height="60" rx="10" fill="none" stroke="#3a3270" stroke-dasharray="3 3"/>
  <text x="145" y="430" fill="#8f87b8" font-size="12.5" font-weight="bold" text-anchor="middle">USGS Elevation Data</text>
  <text x="145" y="451" fill="#6f6699" font-size="10.5" text-anchor="middle">SRTM terrain + solar geometry</text>

  <rect x="330" y="399" width="220" height="72" rx="10" fill="none" stroke="#3a3270" stroke-dasharray="3 3"/>
  <text x="440" y="423" fill="#8f87b8" font-size="13" font-weight="bold" text-anchor="middle">Offline Batch Compute</text>
  <text x="440" y="443" fill="#6f6699" font-size="10.5" text-anchor="middle">terrain horizon profiles · run once</text>
  <text x="440" y="460" fill="#6f6699" font-size="10" text-anchor="middle">local Python, no schedule</text>

  <line x1="250" y1="435" x2="326" y2="435" stroke="#3a3270" stroke-dasharray="3 3" marker-end="url(#arrGhost)"/>
  <line x1="550" y1="435" x2="616" y2="435" stroke="#3a3270" stroke-dasharray="3 3" marker-end="url(#arrGhost)"/>

  <!-- ============ LANE 4 · FOREX (PLANNED) ============ -->
  <text x="40" y="515" fill="#9b92c0" font-size="10.5" letter-spacing="1.5" font-weight="bold">FOREX MODERNIZATION</text>
  <text x="286" y="515" fill="#6f6699" font-size="10.5" letter-spacing="1.5" font-weight="bold">PLANNED</text>

  <rect x="40" y="535" width="210" height="60" rx="10" fill="none" stroke="#3a3270" stroke-dasharray="3 3"/>
  <text x="145" y="560" fill="#8f87b8" font-size="12.5" font-weight="bold" text-anchor="middle">Exchange-Rate API</text>
  <text x="145" y="581" fill="#6f6699" font-size="10.5" text-anchor="middle">currency pair histories</text>

  <rect x="330" y="529" width="220" height="72" rx="10" fill="none" stroke="#3a3270" stroke-dasharray="3 3"/>
  <text x="440" y="553" fill="#8f87b8" font-size="13" font-weight="bold" text-anchor="middle">Scheduled Ingest</text>
  <text x="440" y="573" fill="#6f6699" font-size="10.5" text-anchor="middle">daily rates pull · pair selector data</text>
  <text x="440" y="590" fill="#6f6699" font-size="10" text-anchor="middle">Lambda-class job</text>

  <line x1="250" y1="565" x2="326" y2="565" stroke="#3a3270" stroke-dasharray="3 3" marker-end="url(#arrGhost)"/>
  <line x1="550" y1="565" x2="616" y2="565" stroke="#3a3270" stroke-dasharray="3 3" marker-end="url(#arrGhost)"/>

  <!-- ============ LANE 5 · MARINE (EXPLORING) ============ -->
  <text x="40" y="645" fill="#9b92c0" font-size="10.5" letter-spacing="1.5" font-weight="bold">MARINE TELEMETRY</text>
  <text x="286" y="645" fill="#6f6699" font-size="10.5" letter-spacing="1.5" font-weight="bold">EXPLORING</text>

  <rect x="40" y="665" width="210" height="60" rx="10" fill="none" stroke="#3a3270" stroke-dasharray="3 3"/>
  <text x="145" y="690" fill="#8f87b8" font-size="12.5" font-weight="bold" text-anchor="middle">NMEA 2000 Gateway</text>
  <text x="145" y="711" fill="#6f6699" font-size="10.5" text-anchor="middle">engine &amp; nav instruments · on-water</text>

  <rect x="330" y="659" width="220" height="72" rx="10" fill="none" stroke="#3a3270" stroke-dasharray="3 3"/>
  <text x="440" y="683" fill="#8f87b8" font-size="13" font-weight="bold" text-anchor="middle">Session Batch Upload</text>
  <text x="440" y="703" fill="#6f6699" font-size="10.5" text-anchor="middle">captured at the edge · loaded ashore</text>
  <text x="440" y="720" fill="#6f6699" font-size="10" text-anchor="middle">intermittent, not scheduled</text>

  <line x1="250" y1="695" x2="326" y2="695" stroke="#3a3270" stroke-dasharray="3 3" marker-end="url(#arrGhost)"/>
  <line x1="550" y1="695" x2="616" y2="695" stroke="#3a3270" stroke-dasharray="3 3" marker-end="url(#arrGhost)"/>

  <!-- ============ GLUE CATALOG (PLANNED, spans the lake) ============ -->
  <rect x="605" y="85" width="280" height="700" rx="12" fill="none" stroke="#3a3270" stroke-dasharray="4 3"/>
  <text x="745" y="775" fill="#6f6699" font-size="11" text-anchor="middle">AWS Glue Data Catalog · planned</text>

  <!-- ============ S3 BUCKET ============ -->
  <rect x="620" y="100" width="250" height="655" rx="10" fill="#141230" stroke="#2e2660"/>
  <text x="640" y="126" fill="#e8e0f0" font-size="15" font-weight="bold">Amazon S3</text>

  <!-- L1 chips: medallion trio -->
  <text x="640" y="147" fill="#9b92c0" font-size="11" font-family="'Courier New', monospace">historic_data/</text>
  <rect x="640" y="157" width="58" height="32" rx="6" fill="#B87333"/>
  <text x="669" y="177" fill="#0e0c20" font-size="11.5" font-weight="bold" text-anchor="middle">raw</text>
  <line x1="700" y1="173" x2="710" y2="173" stroke="#5a4aaa" marker-end="url(#arr)"/>
  <rect x="714" y="157" width="62" height="32" rx="6" fill="#b8bcc8"/>
  <text x="745" y="177" fill="#0e0c20" font-size="11.5" font-weight="bold" text-anchor="middle">clean</text>
  <line x1="778" y1="173" x2="788" y2="173" stroke="#5a4aaa" marker-end="url(#arr)"/>
  <rect x="792" y="157" width="52" height="32" rx="6" fill="#FFD166"/>
  <text x="818" y="177" fill="#0e0c20" font-size="11.5" font-weight="bold" text-anchor="middle">mv</text>

  <!-- L2 chip -->
  <text x="640" y="277" fill="#9b92c0" font-size="11" font-family="'Courier New', monospace">swing_trader/</text>
  <rect x="640" y="287" width="204" height="32" rx="6" fill="#1c1840" stroke="#2e2660"/>
  <text x="742" y="307" fill="#e8e0f0" font-size="11.5" text-anchor="middle">universe · scan history</text>

  <!-- L3 chip -->
  <text x="640" y="407" fill="#8f87b8" font-size="11" font-family="'Courier New', monospace">sunset/</text>
  <rect x="640" y="417" width="204" height="32" rx="6" fill="none" stroke="#3a3270" stroke-dasharray="3 3"/>
  <text x="742" y="437" fill="#8f87b8" font-size="11.5" text-anchor="middle">static result table</text>

  <!-- L4 chip -->
  <text x="640" y="537" fill="#8f87b8" font-size="11" font-family="'Courier New', monospace">forex/</text>
  <rect x="640" y="547" width="204" height="32" rx="6" fill="none" stroke="#3a3270" stroke-dasharray="3 3"/>
  <text x="742" y="567" fill="#8f87b8" font-size="11.5" text-anchor="middle">rates history</text>

  <!-- L5 chip -->
  <text x="640" y="667" fill="#8f87b8" font-size="11" font-family="'Courier New', monospace">marine/</text>
  <rect x="640" y="677" width="204" height="32" rx="6" fill="none" stroke="#3a3270" stroke-dasharray="3 3"/>
  <text x="742" y="697" fill="#8f87b8" font-size="11.5" text-anchor="middle">session telemetry</text>

  <!-- bucket footer -->
  <text x="640" y="722" fill="#9b92c0" font-size="11" font-family="'Courier New', monospace">tempestdata-data542</text>
  <rect x="640" y="734" width="8" height="8" fill="#FFB347"/>
  <text x="656" y="742" fill="#9b92c0" font-size="11">IAM roles scoped per project prefix</text>

  <!-- ============ DELIVERY ============ -->
  <rect x="950" y="330" width="210" height="64" rx="10" fill="#141230" stroke="#2e2660"/>
  <text x="1055" y="357" fill="#e8e0f0" font-size="14" font-weight="bold" text-anchor="middle">Amazon CloudFront</text>
  <text x="1055" y="377" fill="#9b92c0" font-size="11" text-anchor="middle">cached CSV endpoints</text>

  <rect x="950" y="470" width="210" height="92" rx="10" fill="#141230" stroke="#FFB347" stroke-width="1.5"/>
  <text x="1055" y="500" fill="#e8e0f0" font-size="15" font-weight="bold" text-anchor="middle">Power BI</text>
  <text x="1055" y="521" fill="#9b92c0" font-size="11" text-anchor="middle">semantic models · DAX measures</text>
  <text x="1055" y="542" fill="#FFD166" font-size="11" text-anchor="middle">embedded at data542.com</text>

  <rect x="950" y="640" width="210" height="60" rx="10" fill="#141230" stroke="#2e2660"/>
  <text x="1055" y="665" fill="#e8e0f0" font-size="12" font-weight="bold" text-anchor="middle">NOAA CDO v2 API</text>
  <text x="1055" y="684" fill="#9b92c0" font-size="10" text-anchor="middle">queried directly at report refresh</text>

  <line x1="889" y1="362" x2="946" y2="362" stroke="#5a4aaa" stroke-width="1.5" marker-end="url(#arr)"/>
  <line x1="1055" y1="394" x2="1055" y2="466" stroke="#FFB347" stroke-width="1.5" marker-end="url(#arrAmber)"/>
  <line x1="1055" y1="636" x2="1055" y2="566" stroke="#5a4aaa" stroke-width="1.5" marker-end="url(#arr)"/>

  <!-- ============ LEGEND ============ -->
  <line x1="40" y1="822" x2="66" y2="822" stroke="#5a4aaa" stroke-width="1.5"/>
  <text x="74" y="826" fill="#9b92c0" font-size="10.5">live</text>
  <line x1="200" y1="822" x2="226" y2="822" stroke="#3a3270" stroke-dasharray="3 3"/>
  <text x="234" y="826" fill="#6f6699" font-size="10.5">planned / exploring</text>
</svg>
